<?xml version="1.0" encoding="utf-8"?><svg viewBox="0 0 8 12" xmlns="http://www.w3.org/2000/svg" xmlns:xlink="http://www.w3.org/1999/xlink"><style>:root>svg{display:none}:root>svg:target{display:block}</style><svg viewBox="0 0 8 12" id="arrow-right" xmlns="http://www.w3.org/2000/svg"><path d="M7.334 5.532L1.994.192A.652.652 0 001.528 0a.652.652 0 00-.464.192L.672.585a.657.657 0 000 .928l4.484 4.485-4.49 4.489a.652.652 0 00-.19.464c0 .176.067.34.19.464l.394.393a.652.652 0 00.464.192c.176 0 .34-.068.464-.192l5.346-5.345a.653.653 0 00.191-.465.652.652 0 00-.191-.466z"/></svg></svg>